
        <svg xmlns="http://www.w3.org/2000/svg" xmlns:xlink="http://www.w3.org/1999/xlink" version="1.1" width="3146.382659284977" 
        height="622.1263019611523" viewBox="0 0 3146.382659284977 622.1263019611523">
			
			<g transform="scale(7.31913296424885) translate(10, 10)">
				<defs id="SvgjsDefs3134"></defs><g id="SvgjsG3135" featureKey="symbolContainer" transform="matrix(1,0,0,1,0,0)" fill="#1e30f3"><rect width="87" height="65" rx="8"></rect></g><g id="SvgjsG3136" featureKey="symbolFeature-0" transform="matrix(0.5235042572021484,0,0,0.5235042572021484,17.382478632478634,6.555567969623793)" fill="#f5eded"><g xmlns="http://www.w3.org/2000/svg"><path fill="#f5eded" d="M24.755,34.336c-1.597-1.598-4.188-1.598-5.785,0L6.199,47.106l-0.001,0.001C5.4,47.906,5,48.953,5,50   c0,1.047,0.4,2.094,1.198,2.893l12.771,12.772c1.597,1.598,4.187,1.598,5.785,0c1.597-1.598,1.597-4.188,0-5.785L14.876,50   l9.879-9.879C26.352,38.524,26.352,35.933,24.755,34.336z"></path><path fill="#f5eded" d="M93.801,47.107L81.029,34.336c-1.598-1.597-4.188-1.597-5.785,0c-1.597,1.598-1.597,4.188,0,5.785   L85.123,50l-9.879,9.879c-1.597,1.598-1.597,4.188,0,5.785c1.597,1.598,4.187,1.598,5.785,0l12.772-12.772   C94.6,52.094,95,51.047,95,50C95,48.953,94.6,47.906,93.801,47.107z"></path><path fill="#f5eded" d="M64.676,16.475c-2.069-0.906-4.482,0.037-5.388,2.107L33.216,78.137c-0.906,2.069,0.037,4.482,2.107,5.388   c2.069,0.906,4.482-0.037,5.388-2.107l26.072-59.555C67.689,19.794,66.746,17.381,64.676,16.475z"></path></g></g><g id="SvgjsG3137" featureKey="nameFeature-0" transform="matrix(1.3675484657287598,0,0,1.3675484657287598,103.17086550318707,-2.0036953767559886)" fill="#1e30f3"><path d="M2.8 11.239999999999998 l16.32 0 q0.24 1.2 0.24 2.48 t-0.24 2.48 l-10.48 0 l0 6.24 l8.32 0 q0.24 1.28 0.24 2.52 t-0.24 2.48 l-8.32 0 l0 7.6 l10.76 0 q0.24 1.2 0.24 2.48 t-0.24 2.48 l-16.6 0 l0 -28.76 z M23.880000000000003 10.760000000000002 q1.44 -0.24 2.82 -0.24 t2.82 0.24 l0 21 q0 1.24 0.14 2 t0.44 1.18 t0.78 0.58 t1.2 0.16 q0.32 0 0.7 -0.04 t0.74 -0.12 q0.44 1.64 0.44 3.2 l0 0.56 l-0.08 0.6 q-0.64 0.2 -1.54 0.28 t-1.66 0.08 q-3.08 0 -4.94 -1.7 t-1.86 -5.54 l0 -22.24 z M38.120000000000005 23.64 l-2.68 0 q-0.12 -0.52 -0.18 -1.1 t-0.06 -1.1 q0 -1.08 0.24 -2.12 l8.24 0 l0 20.68 q-1.44 0.24 -2.78 0.24 t-2.78 -0.24 l0 -16.36 z M37.28 15.84 q-0.24 -1.36 -0.24 -2.66 t0.24 -2.7 q0.68 -0.12 1.46 -0.18 t1.44 -0.06 t1.46 0.06 t1.48 0.18 q0.12 0.68 0.16 1.34 t0.04 1.32 t-0.04 1.34 t-0.16 1.36 q-0.68 0.12 -1.46 0.16 t-1.44 0.04 t-1.46 -0.04 t-1.48 -0.16 z M58.36 11.239999999999998 q1.76 -0.2 3.3 -0.34 t3.42 -0.14 q2.2 0 4.34 0.4 t3.86 1.42 t2.78 2.76 t1.06 4.42 q0 1.6 -0.4 2.82 t-1.02 2.14 t-1.34 1.58 t-1.36 1.06 l-0.68 0.44 l7 12.16 l-1.68 0.16 q-0.88 0.08 -1.8 0.08 q-1.52 0 -3 -0.24 l-7.52 -13.36 l0.96 -0.48 q0.56 -0.28 1.36 -0.72 t1.54 -1.1 t1.26 -1.6 t0.52 -2.22 q0 -2.52 -1.44 -3.7 t-3.72 -1.18 q-0.88 0 -1.6 0.12 l0 24.28 l-1.44 0.12 q-0.72 0.08 -1.4 0.08 t-1.44 -0.04 t-1.56 -0.16 l0 -28.76 z M94.24 40.48 q-3.24 0 -5.6 -1.12 t-3.88 -3.1 t-2.26 -4.68 t-0.74 -5.9 t0.74 -5.94 t2.26 -4.74 t3.88 -3.12 t5.6 -1.12 t5.6 1.12 t3.88 3.12 t2.26 4.74 t0.74 5.94 t-0.74 5.9 t-2.26 4.68 t-3.88 3.1 t-5.6 1.12 z M94.24 35.6 q6.2 0 6.2 -9.92 q0 -4.96 -1.5 -7.44 t-4.66 -2.48 q-6.28 0 -6.28 9.92 t6.24 9.92 z M111.55999999999999 11.239999999999998 q1.48 -0.24 2.92 -0.24 t2.96 0.24 l0 28.76 q-1.52 0.24 -2.96 0.24 t-2.92 -0.24 l0 -28.76 z M128.28 26.68 q-1.36 -0.52 -2.44 -1.14 t-1.84 -1.48 t-1.18 -2.06 t-0.42 -2.88 q0 -2.04 0.7 -3.6 t1.98 -2.62 t3.08 -1.6 t4.04 -0.54 q2.04 0 3.82 0.36 t3.74 1.04 q-0.24 2.32 -1.28 4.56 l-1.2 -0.48 q-0.64 -0.24 -1.34 -0.4 t-1.58 -0.26 t-2 -0.1 q-0.68 0 -1.38 0.12 t-1.26 0.44 t-0.92 0.94 t-0.36 1.62 q0 0.8 0.28 1.34 t0.76 0.92 t1.08 0.62 l1.2 0.52 l2.4 0.92 q1.52 0.6 2.76 1.24 t2.1 1.58 t1.34 2.28 t0.48 3.34 t-0.74 3.68 t-2.14 2.88 t-3.46 1.88 t-4.74 0.68 q-1.32 0 -2.36 -0.08 t-1.98 -0.26 t-1.86 -0.46 t-1.92 -0.68 q0.12 -1.16 0.44 -2.42 t0.76 -2.54 q1.68 0.68 3.16 1.02 t3.16 0.34 q2.52 0 3.96 -0.94 t1.44 -2.86 q0 -0.96 -0.34 -1.6 t-0.88 -1.08 t-1.22 -0.74 t-1.4 -0.58 z M145.84 11.239999999999998 q1.6 -0.24 3.12 -0.24 t3.04 0.24 l6.6 16.48 l6.8 -16.48 q1.24 -0.24 2.76 -0.24 t2.92 0.24 l1.36 28.76 q-1.52 0.24 -2.88 0.24 t-2.68 -0.24 l-0.72 -19.52 l-5.84 13.52 q-0.56 0.08 -1.16 0.14 t-1.16 0.06 t-1.08 -0.04 t-1.08 -0.16 l-5.44 -13.8 l-0.56 19.8 q-1.28 0.24 -2.52 0.24 t-2.6 -0.24 z M184.4 11.239999999999998 q0.84 -0.12 1.6 -0.18 t1.68 -0.06 q0.8 0 1.56 0.06 t1.68 0.18 l9 28.76 q-1.64 0.24 -3.18 0.24 t-2.98 -0.24 l-1.6 -5.76 l-9.52 0 l-1.64 5.76 q-1.44 0.24 -2.76 0.24 q-1.48 0 -2.92 -0.24 z M190.8 29.4 l-3.32 -12.08 l-3.48 12.08 l6.8 0 z M203.16000000000003 11.239999999999998 q1.24 -0.24 2.4 -0.24 t2.44 0.24 l11.12 18.32 l0 -18.32 q1.44 -0.24 2.72 -0.24 t2.44 0.24 l0 28.76 q-1.28 0.24 -2.36 0.24 t-2.4 -0.24 l-11.2 -18.28 l0 18.28 q-1.28 0.24 -2.6 0.24 t-2.56 -0.24 l0 -28.76 z"></path></g>
			</g>
		</svg>
	